<?xml version="1.0" standalone="no"?><!DOCTYPE svg PUBLIC "-//W3C//DTD SVG 1.1//EN" "http://www.w3.org/Graphics/SVG/1.1/DTD/svg11.dtd"><svg t="1554980839944" class="icon" style="" viewBox="0 0 1024 1024" version="1.1" xmlns="http://www.w3.org/2000/svg" p-id="1994" xmlns:xlink="http://www.w3.org/1999/xlink" width="200" height="200"><defs><style type="text/css"></style></defs><path d="M512 0c281.6 0 512 230.4 512 512s-230.4 512-512 512S0 793.6 0 512 230.4 0 512 0z" fill="#f4ea2a" p-id="1995"></path><path d="M512 789.333333c-29.866667 0-51.2-25.6-55.466667-55.466666 0-34.133333 25.6-59.733333 59.733334-59.733334 29.866667 0 51.2 25.6 55.466666 55.466667-4.266667 34.133333-29.866667 59.733333-59.733333 59.733333z m59.733333-226.133333c0 29.866667-21.333333 55.466667-51.2 55.466667h-17.066666c-29.866667 0-51.2-25.6-51.2-55.466667L426.666667 294.4c0-29.866667 21.333333-59.733333 68.266666-59.733333h38.4c42.666667 0 68.266667 25.6 68.266667 59.733333l-29.866667 268.8z m0 0" fill="#FFFFFF" p-id="1996"></path></svg>